<svg width="742" height="585" viewBox="0 0 742 585" fill="none" xmlns="http://www.w3.org/2000/svg">
<path d="M648.901 394.764C645.719 476.136 595.529 535.116 510.599 532.854C455.979 531.379 431.573 498.528 389.223 474.661C367.605 462.465 358.944 470.235 340.443 482.693C301.898 508.626 274.309 534.1 223.791 532.854C127.641 530.461 85.7176 452.236 93.9187 363.979C106.089 232.577 249.739 211.889 356.189 210.021C485.405 207.791 655.462 227.134 648.901 394.764Z" stroke="#4264F6" stroke-miterlimit="10"/>
<path d="M648.901 394.764C645.719 476.136 595.529 535.116 510.599 532.854C455.979 531.379 431.573 498.528 389.223 474.661C367.605 462.465 358.944 470.235 340.443 482.693C301.898 508.626 274.309 534.1 223.791 532.854C127.641 530.461 85.7176 452.236 93.9187 363.979C106.089 232.577 249.739 211.889 356.189 210.021C485.405 207.791 655.462 227.134 648.901 394.764Z" stroke="#4264F6" stroke-miterlimit="10"/>
<path d="M237.044 449.94C274.13 449.94 304.194 419.894 304.194 382.83C304.194 345.765 274.13 315.719 237.044 315.719C199.958 315.719 169.893 345.765 169.893 382.83C169.893 419.894 199.958 449.94 237.044 449.94Z" fill="#4264F6"/>
<path d="M513.092 449.94C550.178 449.94 580.242 419.894 580.242 382.83C580.242 345.765 550.178 315.719 513.092 315.719C476.006 315.719 445.941 345.765 445.941 382.83C445.941 419.894 476.006 449.94 513.092 449.94Z" fill="#4264F6"/>
<path d="M680.098 296.146V284.442C680.098 214.807 623.609 158.319 553.9 158.319H394.964V129.992C421.994 121.534 441.611 96.3222 441.611 66.4879C441.611 29.7687 411.825 0 375.084 0C338.343 0 308.524 29.7687 308.524 66.4879C308.524 95.7648 327.42 120.583 353.696 129.468V158.319H188.1C118.391 158.319 61.9017 214.807 61.9017 284.442V289.426C27.7196 289.426 0 317.129 0 351.291V400.96C0 435.122 27.7196 462.825 61.9017 462.825C61.9017 530.002 116.39 584.457 183.606 584.457H558.394C625.61 584.457 680.098 530.002 680.098 462.825V469.546C714.28 469.546 742 441.843 742 407.681V358.012C742 323.85 714.28 296.146 680.098 296.146ZM648.901 394.764C645.719 476.136 595.529 535.116 510.599 532.854C455.979 531.378 431.573 498.528 389.223 474.661C367.605 462.465 358.944 470.235 340.443 482.693C301.898 508.626 274.309 534.1 223.791 532.854C127.641 530.461 85.7176 452.236 93.9186 363.979C106.089 232.576 249.739 211.889 356.189 210.02C485.405 207.791 655.462 227.134 648.901 394.764Z" fill="#4264F6"/>
</svg>
