<svg width="750" height="593" viewBox="0 0 750 593" fill="none" xmlns="http://www.w3.org/2000/svg">
<g filter="url(#filter0_d_197_2)">
<path d="M652.901 394.764C649.719 476.136 599.529 535.116 514.599 532.854C459.979 531.379 435.573 498.528 393.223 474.661C371.605 462.465 362.944 470.235 344.443 482.693C305.898 508.626 278.309 534.1 227.791 532.854C131.641 530.461 89.7176 452.236 97.9187 363.979C110.089 232.577 253.739 211.889 360.189 210.021C489.405 207.791 659.462 227.134 652.901 394.764Z" stroke="white" stroke-miterlimit="10"/>
<path d="M652.901 394.764C649.719 476.136 599.529 535.116 514.599 532.854C459.979 531.379 435.573 498.528 393.223 474.661C371.605 462.465 362.944 470.235 344.443 482.693C305.898 508.626 278.309 534.1 227.791 532.854C131.641 530.461 89.7176 452.236 97.9187 363.979C110.089 232.577 253.739 211.889 360.189 210.021C489.405 207.791 659.462 227.134 652.901 394.764Z" stroke="white" stroke-miterlimit="10"/>
<path d="M241.044 449.94C278.13 449.94 308.194 419.894 308.194 382.83C308.194 345.765 278.13 315.719 241.044 315.719C203.958 315.719 173.893 345.765 173.893 382.83C173.893 419.894 203.958 449.94 241.044 449.94Z" fill="white"/>
<path d="M517.092 449.94C554.178 449.94 584.242 419.894 584.242 382.83C584.242 345.765 554.178 315.719 517.092 315.719C480.006 315.719 449.941 345.765 449.941 382.83C449.941 419.894 480.006 449.94 517.092 449.94Z" fill="white"/>
<path d="M684.098 296.146V284.442C684.098 214.807 627.609 158.319 557.9 158.319H398.964V129.992C425.994 121.534 445.611 96.3222 445.611 66.4879C445.611 29.7687 415.825 0 379.084 0C342.343 0 312.524 29.7687 312.524 66.4879C312.524 95.7648 331.42 120.583 357.696 129.468V158.319H192.1C122.391 158.319 65.9017 214.807 65.9017 284.442V289.426C31.7196 289.426 4 317.129 4 351.291V400.96C4 435.122 31.7196 462.825 65.9017 462.825C65.9017 530.002 120.39 584.457 187.606 584.457H562.394C629.61 584.457 684.098 530.002 684.098 462.825V469.546C718.28 469.546 746 441.843 746 407.681V358.012C746 323.85 718.28 296.146 684.098 296.146ZM652.901 394.764C649.719 476.136 599.529 535.116 514.599 532.854C459.979 531.378 435.573 498.528 393.223 474.661C371.605 462.465 362.944 470.235 344.443 482.693C305.898 508.626 278.309 534.1 227.791 532.854C131.641 530.46 89.7176 452.236 97.9186 363.979C110.089 232.576 253.739 211.889 360.189 210.02C489.405 207.791 659.462 227.134 652.901 394.764Z" fill="white"/>
</g>
<defs>
<filter id="filter0_d_197_2" x="0" y="0" width="750" height="592.457" filterUnits="userSpaceOnUse" color-interpolation-filters="sRGB">
<feFlood flood-opacity="0" result="BackgroundImageFix"/>
<feColorMatrix in="SourceAlpha" type="matrix" values="0 0 0 0 0 0 0 0 0 0 0 0 0 0 0 0 0 0 127 0" result="hardAlpha"/>
<feOffset dy="4"/>
<feGaussianBlur stdDeviation="2"/>
<feComposite in2="hardAlpha" operator="out"/>
<feColorMatrix type="matrix" values="0 0 0 0 0 0 0 0 0 0 0 0 0 0 0 0 0 0 0.25 0"/>
<feBlend mode="normal" in2="BackgroundImageFix" result="effect1_dropShadow_197_2"/>
<feBlend mode="normal" in="SourceGraphic" in2="effect1_dropShadow_197_2" result="shape"/>
</filter>
</defs>
</svg>
