<svg width="488" height="431" viewBox="0 0 488 431" fill="none" xmlns="http://www.w3.org/2000/svg">
<path d="M33.3161 115.778C31.0304 115.778 29.1183 115.625 27.2282 115.866C26.6129 115.954 25.8217 116.943 25.6239 117.668C21.7777 131.072 19.4261 144.608 21.9756 158.561C22.0635 159.044 22.0415 159.55 22.0635 160.033C21.8657 160.165 21.6679 160.297 21.4701 160.429C18.8327 157.616 15.9756 154.979 13.624 151.947C3.42632 138.895 -0.859335 123.996 0.810975 107.538C1.22855 103.363 2.50326 99.2983 3.38237 95.1673C3.73401 93.5632 4.65708 93.8489 5.79992 94.3323C19.4921 100.155 33.2062 105.956 46.9203 111.757C50.8763 113.427 54.8543 115.031 58.7883 116.789C72.3925 122.876 77.2716 138.016 69.4255 150.694C64.7223 158.319 58.3707 164.45 50.3928 168.691C46.1291 170.954 41.5797 171.943 36.8985 169.767C33.382 168.119 31.5139 165.021 30.2172 161.615C27.6898 155.001 27.2282 148.057 28.2172 141.18C29.3161 133.467 31.2062 125.842 32.7666 118.195C32.8985 117.536 33.0523 116.877 33.2721 115.756L33.3161 115.778Z" fill="white"/>
<path d="M94.7 84.9715C94.6121 88.9487 94.1505 95.4089 90.5462 101.232C84.8539 110.373 74.3486 114.592 64.2168 111.076C56.3488 108.329 48.7445 104.792 41.0083 101.627C39.8655 101.166 39.4259 100.617 40.0413 99.3642C46.3269 86.3559 53.7334 74.1386 64.8102 64.5581C68.6783 61.2182 72.8761 58.4275 78.0409 57.4387C83.4913 56.384 88.3045 58.5814 91.0737 63.4595C94.4143 69.3703 94.8758 75.8306 94.722 84.9935L94.7 84.9715Z" fill="white"/>
<path d="M67.5135 53.5495C64.3047 56.0764 61.2938 58.1859 58.5905 60.6469C47.7335 70.513 40.1731 82.7742 33.9095 95.8704C33.0304 97.7162 32.2172 98.0019 30.437 97.2328C23.1184 94.0466 15.7778 90.9484 8.43725 87.8061C7.95374 87.6084 7.55814 87.2568 6.87683 86.8173C13.0086 74.688 22.0635 65.6569 34.0633 59.6141C44.4808 54.3625 55.5576 52.3409 67.5135 53.5495Z" fill="white"/>
<path d="M55.3158 174.338C57.2498 172.932 59.096 171.701 60.8322 170.361C68.2827 164.516 74.1727 157.242 79.3155 149.354C86.1506 138.873 95.4252 134.961 107.579 137.752C110.018 138.323 112.304 139.532 114.634 140.499C115.755 140.96 115.711 141.729 115.161 142.74C108.898 154.32 99.8647 163.043 88.0627 168.823C78.2606 173.635 67.8651 175.524 56.9641 174.821C56.6564 174.821 56.3488 174.777 56.0411 174.733C55.9092 174.711 55.7773 174.602 55.2938 174.316L55.3158 174.338Z" fill="white"/>
<path d="M100.722 67.7004C101.469 68.3157 102.128 68.7771 102.7 69.3265C117.249 83.1918 123.623 100.199 121.996 120.151C121.667 124.238 120.414 128.259 119.557 132.303C119.161 134.148 118.348 134.434 116.458 133.687C110.832 131.446 105.843 128.523 102.458 123.337C98.5241 117.317 97.2494 110.812 98.9417 103.781C100.832 96.0023 102.041 88.1138 101.821 80.0935C101.711 76.0723 101.117 72.0732 100.722 67.7004Z" fill="white"/>
<path d="M487.86 79.1486C442.564 74.2265 426.718 91.7174 464.981 44.0569C467.597 41.9914 466.036 38.5196 462.586 39.5743C451.223 38.6295 437.817 41.1564 427.311 38.6514C427.202 28.6535 467.531 -2.17533 444.828 0.21978C413.949 -3.27401 410.586 43.8592 378.631 39.4425C369.07 35.685 411.927 1.84582 399.4 0.21978C366.191 -4.65834 326.302 62.207 317.576 91.6296C308.873 121.052 317.247 156.166 344.719 144.849C372.213 133.533 372.785 126.919 383.378 113.801C416.015 125.227 391.685 178.271 354.675 183.918C315.576 189.873 323.269 195.103 297.555 243.994C296.038 247.773 292.368 247.246 293.071 242.873C292.038 184.797 291.775 88.3994 292.632 68.4475C293.489 48.4956 291.401 35.685 275.951 35.663C260.5 35.6411 87.755 35.663 87.755 35.663C107.337 41.0465 171.117 68.03 140.128 137.95C138.612 141.378 140.414 143.377 144.062 143.421C166.216 144.827 228.171 168.317 221.534 183.896C206.171 187.236 126.634 176.887 129.798 188.665C170.194 227.338 105.447 235.27 98.0626 283.7C105.425 288.402 125.073 279.217 124.853 291.149C126.875 307.146 102.48 348.104 114.92 354.916C121.974 356.696 134.678 350.983 138.48 358.278C148.48 397.281 182.655 427.165 223.468 428.044C298.939 429.648 467.729 430.153 467.729 430.153L376.697 383.745C376.872 391.458 377.246 405.763 377.246 405.763C377.246 405.763 330.653 398.248 279.335 392.513C204.017 384.119 169.227 357.751 187.051 291.457C198.325 249.531 169.49 359.794 250.368 363.727C233.16 333.074 248.852 290.819 285.511 284.667C296.939 283.678 293.511 308.904 290.72 322.813C289.643 328.24 293.511 327.625 304.302 327.471C327.444 327.164 363.136 308.991 355.928 365.31C357.466 378.713 371.114 345.995 377.532 345.402C379.466 351.84 374.609 368.034 379.664 369.55C433.729 309.145 408.696 299.653 339.84 304.179C336.851 304.882 334.477 302.575 337.291 300.158C354.411 278.382 368.96 255.552 387.18 234.611C390.389 252.937 380.169 266.517 369.048 279.481C433.905 292.138 496.651 196.751 467.223 132.083C454.146 110.725 481.618 97.2987 487.882 79.0827L487.86 79.1486ZM373.422 92.1569C371.642 110.966 351.928 116.965 345.181 112.878C353.576 98.0678 377.07 53.6154 373.422 92.1569Z" fill="white"/>
<path d="M444.872 371.176C448.344 318.484 431.619 373.967 423.026 366.87C422.982 347.445 423.026 328.02 422.916 308.574C422.916 298.62 442.916 301.806 463.003 303.454C506.014 310.398 458.893 354.213 444.872 371.154V371.176Z" fill="white"/>
</svg>
